<svg width="414" height="824" viewBox="0 0 414 824" fill="none" xmlns="http://www.w3.org/2000/svg">
<path d="M391.125 630.903C392.064 630.903 392.826 630.142 392.826 629.202C392.826 628.262 392.064 627.5 391.125 627.5C390.185 627.5 389.423 628.262 389.423 629.202C389.423 630.142 390.185 630.903 391.125 630.903Z" fill="white" fill-opacity="0.25"/>
<path d="M15.6775 532.422C16.6873 532.422 17.5059 531.604 17.5059 530.594C17.5059 529.584 16.6873 528.765 15.6775 528.765C14.6677 528.765 13.8491 529.584 13.8491 530.594C13.8491 531.604 14.6677 532.422 15.6775 532.422Z" fill="white" fill-opacity="0.25"/>
<path d="M124.493 698.473C125.513 698.473 126.339 697.646 126.339 696.627C126.339 695.607 125.513 694.781 124.493 694.781C123.474 694.781 122.647 695.607 122.647 696.627C122.647 697.646 123.474 698.473 124.493 698.473Z" fill="white" fill-opacity="0.25"/>
<path d="M189.05 772.48C190.071 772.48 190.899 771.652 190.899 770.631C190.899 769.61 190.071 768.782 189.05 768.782C188.029 768.782 187.201 769.61 187.201 770.631C187.201 771.652 188.029 772.48 189.05 772.48Z" fill="white" fill-opacity="0.25"/>
<path d="M261.022 628.169C262.06 628.169 262.902 627.327 262.902 626.289C262.902 625.25 262.06 624.409 261.022 624.409C259.983 624.409 259.142 625.25 259.142 626.289C259.142 627.327 259.983 628.169 261.022 628.169Z" fill="white" fill-opacity="0.25"/>
<path d="M358.703 644.142C359.762 644.142 360.62 643.284 360.62 642.225C360.62 641.166 359.762 640.308 358.703 640.308C357.644 640.308 356.786 641.166 356.786 642.225C356.786 643.284 357.644 644.142 358.703 644.142Z" fill="white" fill-opacity="0.25"/>
<path d="M230.784 312.068C231.856 312.068 232.725 311.2 232.725 310.128C232.725 309.056 231.856 308.187 230.784 308.187C229.713 308.187 228.844 309.056 228.844 310.128C228.844 311.2 229.713 312.068 230.784 312.068Z" fill="white" fill-opacity="0.25"/>
<path d="M345.647 221.411C346.756 221.411 347.655 220.512 347.655 219.403C347.655 218.294 346.756 217.395 345.647 217.395C344.538 217.395 343.639 218.294 343.639 219.403C343.639 220.512 344.538 221.411 345.647 221.411Z" fill="white" fill-opacity="0.25"/>
<path d="M293.711 630.195C294.823 630.195 295.724 629.294 295.724 628.183C295.724 627.071 294.823 626.17 293.711 626.17C292.6 626.17 291.699 627.071 291.699 628.183C291.699 629.294 292.6 630.195 293.711 630.195Z" fill="white" fill-opacity="0.25"/>
<path d="M69.3625 823.144C70.479 823.144 71.3842 822.239 71.3842 821.123C71.3842 820.006 70.479 819.101 69.3625 819.101C68.246 819.101 67.3408 820.006 67.3408 821.123C67.3408 822.239 68.246 823.144 69.3625 823.144Z" fill="white" fill-opacity="0.25"/>
<path d="M232.786 768.262C233.907 768.262 234.815 767.354 234.815 766.234C234.815 765.113 233.907 764.205 232.786 764.205C231.666 764.205 230.758 765.113 230.758 766.234C230.758 767.354 231.666 768.262 232.786 768.262Z" fill="white" fill-opacity="0.25"/>
<path d="M396.864 253.977C398.001 253.977 398.922 253.055 398.922 251.918C398.922 250.781 398.001 249.859 396.864 249.859C395.726 249.859 394.805 250.781 394.805 251.918C394.805 253.055 395.726 253.977 396.864 253.977Z" fill="white" fill-opacity="0.25"/>
<path d="M379.292 576.998C380.459 576.998 381.405 576.052 381.405 574.885C381.405 573.717 380.459 572.771 379.292 572.771C378.124 572.771 377.178 573.717 377.178 574.885C377.178 576.052 378.124 576.998 379.292 576.998Z" fill="white" fill-opacity="0.25"/>
<path d="M163.893 603.198C165.068 603.198 166.02 602.246 166.02 601.071C166.02 599.896 165.068 598.943 163.893 598.943C162.718 598.943 161.766 599.896 161.766 601.071C161.766 602.246 162.718 603.198 163.893 603.198Z" fill="white" fill-opacity="0.25"/>
<path d="M99.2698 374.08C100.458 374.08 101.422 373.116 101.422 371.928C101.422 370.739 100.458 369.776 99.2698 369.776C98.0812 369.776 97.1177 370.739 97.1177 371.928C97.1177 373.116 98.0812 374.08 99.2698 374.08Z" fill="white" fill-opacity="0.25"/>
<path d="M276.411 605.594C277.605 605.594 278.572 604.627 278.572 603.434C278.572 602.241 277.605 601.273 276.411 601.273C275.218 601.273 274.251 602.241 274.251 603.434C274.251 604.627 275.218 605.594 276.411 605.594Z" fill="white" fill-opacity="0.25"/>
<path d="M381.945 247.917C383.151 247.917 384.128 246.94 384.128 245.735C384.128 244.53 383.151 243.552 381.945 243.552C380.74 243.552 379.763 244.53 379.763 245.735C379.763 246.94 380.74 247.917 381.945 247.917Z" fill="white" fill-opacity="0.25"/>
<path d="M261.715 418.707C262.933 418.707 263.92 417.72 263.92 416.502C263.92 415.284 262.933 414.296 261.715 414.296C260.497 414.296 259.509 415.284 259.509 416.502C259.509 417.72 260.497 418.707 261.715 418.707Z" fill="white" fill-opacity="0.25"/>
<path d="M49.9518 752.865C51.1846 752.865 52.184 751.866 52.184 750.633C52.184 749.4 51.1846 748.401 49.9518 748.401C48.7191 748.401 47.7197 749.4 47.7197 750.633C47.7197 751.866 48.7191 752.865 49.9518 752.865Z" fill="white" fill-opacity="0.25"/>
<path d="M22.0659 486.536C23.3079 486.536 24.3148 485.529 24.3148 484.287C24.3148 483.045 23.3079 482.038 22.0659 482.038C20.8238 482.038 19.8169 483.045 19.8169 484.287C19.8169 485.529 20.8238 486.536 22.0659 486.536Z" fill="white" fill-opacity="0.25"/>
<path d="M211.134 58.5464C212.378 58.5464 213.387 57.5374 213.387 56.2927C213.387 55.048 212.378 54.039 211.134 54.039C209.889 54.039 208.88 55.048 208.88 56.2927C208.88 57.5374 209.889 58.5464 211.134 58.5464Z" fill="white" fill-opacity="0.25"/>
<path d="M270.896 476.912C272.145 476.912 273.158 475.899 273.158 474.65C273.158 473.4 272.145 472.388 270.896 472.388C269.647 472.388 268.634 473.4 268.634 474.65C268.634 475.899 269.647 476.912 270.896 476.912Z" fill="white" fill-opacity="0.25"/>
<path d="M185.953 509.262C187.228 509.262 188.261 508.229 188.261 506.954C188.261 505.679 187.228 504.645 185.953 504.645C184.678 504.645 183.645 505.679 183.645 506.954C183.645 508.229 184.678 509.262 185.953 509.262Z" fill="white" fill-opacity="0.25"/>
<path d="M118.973 312.2C120.266 312.2 121.314 311.152 121.314 309.859C121.314 308.566 120.266 307.518 118.973 307.518C117.68 307.518 116.632 308.566 116.632 309.859C116.632 311.152 117.68 312.2 118.973 312.2Z" fill="white" fill-opacity="0.25"/>
<path d="M51.4465 336.11C52.7615 336.11 53.8275 335.044 53.8275 333.729C53.8275 332.414 52.7615 331.348 51.4465 331.348C50.1315 331.348 49.0654 332.414 49.0654 333.729C49.0654 335.044 50.1315 336.11 51.4465 336.11Z" fill="white" fill-opacity="0.25"/>
<path d="M264.511 60.0344C265.834 60.0344 266.906 58.9618 266.906 57.6387C266.906 56.3157 265.834 55.2431 264.511 55.2431C263.188 55.2431 262.115 56.3157 262.115 57.6387C262.115 58.9618 263.188 60.0344 264.511 60.0344Z" fill="white" fill-opacity="0.25"/>
<path d="M345.004 531.011C346.329 531.011 347.404 529.936 347.404 528.611C347.404 527.285 346.329 526.21 345.004 526.21C343.678 526.21 342.604 527.285 342.604 528.611C342.604 529.936 343.678 531.011 345.004 531.011Z" fill="white" fill-opacity="0.25"/>
<path d="M101.302 628.62C102.656 628.62 103.754 627.521 103.754 626.167C103.754 624.812 102.656 623.714 101.302 623.714C99.9468 623.714 98.8486 624.812 98.8486 626.167C98.8486 627.521 99.9468 628.62 101.302 628.62Z" fill="white" fill-opacity="0.25"/>
<path d="M165.462 215.345C166.845 215.345 167.966 214.224 167.966 212.841C167.966 211.458 166.845 210.337 165.462 210.337C164.079 210.337 162.958 211.458 162.958 212.841C162.958 214.224 164.079 215.345 165.462 215.345Z" fill="white" fill-opacity="0.25"/>
<path d="M233.454 361.963C234.84 361.963 235.963 360.84 235.963 359.455C235.963 358.07 234.84 356.947 233.454 356.947C232.069 356.947 230.946 358.07 230.946 359.455C230.946 360.84 232.069 361.963 233.454 361.963Z" fill="white" fill-opacity="0.25"/>
</svg>
