<svg width="30" height="30" viewBox="0 0 30 30" fill="none" xmlns="http://www.w3.org/2000/svg">
<circle cx="15" cy="15" r="15" fill="#393B5E"/>
<path d="M22.1998 10.5V19.5C22.1998 23.1 21.2998 24 17.6998 24H12.2998C8.6998 24 7.7998 23.1 7.7998 19.5V10.5C7.7998 6.9 8.6998 6 12.2998 6H17.6998C21.2998 6 22.1998 6.9 22.1998 10.5Z" stroke="white" stroke-width="1.35" stroke-linecap="round" stroke-linejoin="round"/>
<path d="M16.8002 9.1499H13.2002" stroke="white" stroke-width="1.35" stroke-linecap="round" stroke-linejoin="round"/>
<path d="M15.0005 21.3901C15.7709 21.3901 16.3955 20.7655 16.3955 19.9951C16.3955 19.2247 15.7709 18.6001 15.0005 18.6001C14.23 18.6001 13.6055 19.2247 13.6055 19.9951C13.6055 20.7655 14.23 21.3901 15.0005 21.3901Z" stroke="white" stroke-width="1.35" stroke-linecap="round" stroke-linejoin="round"/>
</svg>
