<svg width="24" height="19" viewBox="0 0 24 19" fill="none" xmlns="http://www.w3.org/2000/svg">
<path d="M20.3473 1.52819C18.7827 0.812611 17.1211 0.291083 15.3867 0C15.1684 0.375986 14.9258 0.885377 14.756 1.28562C12.9113 1.01879 11.0799 1.01879 9.26061 1.28562C9.0908 0.885377 8.83609 0.375986 8.6299 0C6.88342 0.291083 5.22181 0.812611 3.66815 1.52819C0.526875 6.16127 -0.322124 10.6852 0.102374 15.1485C2.18847 16.6645 4.20183 17.5863 6.17999 18.1928C6.66513 17.5378 7.10176 16.8343 7.47775 16.0945C6.76216 15.8277 6.08296 15.5002 5.42802 15.1121C5.59782 14.9909 5.76763 14.8574 5.9253 14.724C9.87919 16.5312 14.1618 16.5312 18.0671 14.724C18.2369 14.8574 18.3946 14.9909 18.5644 15.1121C17.9094 15.5002 17.2303 15.8277 16.5147 16.0945C16.8907 16.8343 17.3273 17.5378 17.8124 18.1928C19.7894 17.5863 21.8149 16.6645 23.89 15.1485C24.4115 9.98178 23.0641 5.49425 20.3473 1.52819ZM8.02352 12.3953C6.83491 12.3953 5.86463 11.3159 5.86463 9.99391C5.86463 8.67192 6.81066 7.59243 8.02352 7.59243C9.22422 7.59243 10.2066 8.67192 10.1823 9.99391C10.1823 11.3159 9.22422 12.3953 8.02352 12.3953ZM15.9932 12.3953C14.8045 12.3953 13.833 11.3159 13.833 9.99391C13.833 8.67192 14.7803 7.59243 15.9932 7.59243C17.1939 7.59243 18.1763 8.67192 18.152 9.99391C18.152 11.3159 17.206 12.3953 15.9932 12.3953Z" fill="white"/>
</svg>
