<svg width="20" height="23" viewBox="0 0 20 23" fill="none" xmlns="http://www.w3.org/2000/svg">
<g clip-path="url(#clip0_4233_696)">
<path fill-rule="evenodd" clip-rule="evenodd" d="M7.13883 22.0508C9.03761 22.0508 10.844 21.2837 12.1868 19.9062C13.5296 18.5287 14.2777 16.6756 14.2777 14.7273V6.55517H14.2785L14.2789 5.94711C14.8893 6.61101 15.6345 7.13556 16.4378 7.52441C17.1379 7.86293 17.8855 8.0998 18.6467 8.23939L19.286 8.35657L19.9999 4.64498L19.3347 4.5253C18.3936 4.35604 17.5419 3.93376 16.7893 3.33521C15.8161 2.5614 15.0311 1.51253 14.4492 0.406204L14.262 0.0507812H10.5248V14.7354C10.5248 15.6526 10.1705 16.5297 9.53333 17.1838C8.89568 17.8374 8.04032 18.2012 7.13883 18.2012C6.23734 18.2012 5.38198 17.8374 4.74433 17.1838C4.10681 16.5297 3.7529 15.6522 3.7529 14.7274C3.7529 13.8026 4.10681 12.9255 4.74433 12.2715C5.38198 11.6173 6.23734 11.2539 7.13883 11.2539H8.46355V7.40398H7.13883C5.23968 7.40398 3.43365 8.17141 2.09099 9.54903C0.74809 10.9264 0 12.7791 0 14.7273C0 16.6754 0.74809 18.5286 2.09099 19.9062C3.43377 21.2837 5.2398 22.0508 7.13883 22.0508Z" fill="white"/>
</g>
<defs>
<clipPath id="clip0_4233_696">
<rect width="20" height="22" fill="white" transform="translate(0 0.0507812)"/>
</clipPath>
</defs>
</svg>
