<svg width="31" height="31" viewBox="0 0 31 31" fill="none" xmlns="http://www.w3.org/2000/svg">
<path d="M15.8682 15.4918C15.8682 18.1835 14.4659 19.8871 12.2259 19.8871C9.98588 19.8871 8.58353 18.1835 8.58353 15.4918C8.58353 12.7906 9.98588 11.0965 12.2259 11.0965C14.4659 11.0965 15.8682 12.7906 15.8682 15.4918ZM30.1176 8.28235V21.8353C30.1176 22.9082 30.1082 24.6024 29.5247 26.1082C29.2329 26.8518 28.5553 27.8965 27.5953 28.64C27.04 29.0635 26.3812 29.4776 25.4776 29.7412C24.5082 30.0235 23.3129 30.1176 21.8353 30.1176H8.28235C6.80471 30.1176 5.60941 30.0235 4.64 29.7318C3.73647 29.4588 3.07765 29.0541 2.52235 28.6306C1.56235 27.8965 0.884706 26.8424 0.592941 26.0988C0.00941176 24.6024 0 22.9082 0 21.8353V8.28235C0 7.20941 0.00941176 5.51529 0.592941 4.00941C0.884706 3.26588 1.56235 2.22118 2.52235 1.47765C3.07765 1.05412 3.73647 0.64 4.64 0.376471C5.60941 0.0941176 6.80471 0 8.28235 0H21.8353C23.3224 0 24.5082 0.0941176 25.4776 0.385882C26.3812 0.658823 27.0494 1.06353 27.5953 1.48706C28.5553 2.22118 29.2329 3.27529 29.5247 4.01882C30.1082 5.51529 30.1176 7.20941 30.1176 8.28235ZM5.93882 20.96V14.4282H4.59294V20.96H5.93882ZM6.03294 12.6118C6.03294 12.1882 5.69412 11.84 5.26118 11.84C4.83765 11.84 4.48941 12.1788 4.48941 12.6118C4.48941 13.0353 4.83765 13.3835 5.26118 13.3835C5.69412 13.3741 6.03294 13.0353 6.03294 12.6118ZM17.2706 15.4918C17.2706 12.0188 15.3318 9.83529 12.2259 9.83529C9.12 9.83529 7.18118 12.0188 7.18118 15.4918C7.18118 18.9647 9.12 21.1388 12.2259 21.1388C15.3318 21.1388 17.2706 18.9647 17.2706 15.4918ZM26.0047 17.8541C26.0047 16.3106 25.1012 15.3976 22.8235 14.8988L21.6094 14.6353C20.1129 14.3059 19.5294 13.7129 19.5294 12.8565C19.5294 11.7365 20.5835 11.0776 21.9482 11.0776C23.3788 11.0776 24.32 11.8118 24.4424 13.0071H25.8071C25.7412 11.1529 24.1694 9.84471 21.9859 9.84471C19.7176 9.84471 18.1271 11.1153 18.1271 12.9129C18.1271 14.4659 19.0776 15.4635 21.2706 15.9341L22.4847 16.1976C24 16.5271 24.6118 17.1388 24.6118 18.0518C24.6118 19.1341 23.5294 19.9059 22.0518 19.9059C20.48 19.9059 19.3882 19.1906 19.2282 18.0141H17.8635C17.9953 19.9059 19.5859 21.1294 21.9765 21.1294C24.4141 21.1388 26.0047 19.8776 26.0047 17.8541Z" fill="url(#paint0_linear_3767_2054)"/>
<defs>
<linearGradient id="paint0_linear_3767_2054" x1="8.77344" y1="13.1762" x2="55.1948" y2="-19.6535" gradientUnits="userSpaceOnUse">
<stop stop-color="#E0E2FA"/>
<stop offset="1" stop-color="#7881C9" stop-opacity="0"/>
</linearGradient>
</defs>
</svg>
