<svg width="22" height="23" viewBox="0 0 22 23" fill="none" xmlns="http://www.w3.org/2000/svg">
<g clip-path="url(#clip0_4233_723)">
<path d="M11.0001 16.7033C10.2375 16.7033 9.49701 16.5537 8.79961 16.2587C8.12641 15.974 7.52204 15.5665 7.00316 15.0478C6.48443 14.5291 6.07696 13.9245 5.79221 13.2513C5.49726 12.5538 5.34766 11.8135 5.34766 11.0509C5.34766 10.2883 5.49726 9.54779 5.79221 8.85039C6.07696 8.17719 6.48443 7.57282 7.00316 7.05394C7.52188 6.53521 8.12641 6.12774 8.79961 5.84299C9.49717 5.54804 10.2375 5.39844 11.0001 5.39844C11.7627 5.39844 12.5032 5.54804 13.2006 5.84299C13.8738 6.12774 14.4781 6.53521 14.997 7.05394C15.5157 7.57267 15.9232 8.17719 16.208 8.85039C16.5029 9.54795 16.6525 10.2883 16.6525 11.0509C16.6525 11.8135 16.5029 12.5539 16.208 13.2513C15.9232 13.9245 15.5157 14.5289 14.997 15.0478C14.4783 15.5665 13.8738 15.974 13.2006 16.2587C12.503 16.5537 11.7627 16.7033 11.0001 16.7033ZM11.0001 7.39289C8.98316 7.39289 7.34227 9.03378 7.34227 11.0507C7.34227 13.0676 8.98316 14.7085 11.0001 14.7085C13.017 14.7085 14.6579 13.0676 14.6579 11.0507C14.6579 9.03378 13.017 7.39289 11.0001 7.39289Z" fill="white"/>
<path d="M15.6044 22.0508H6.39556C5.53253 22.0508 4.69496 21.8815 3.90579 21.5478C3.14411 21.2256 2.46023 20.7646 1.87314 20.1775C1.28606 19.5904 0.825157 18.9067 0.502857 18.1448C0.169243 17.3558 0 16.5181 0 15.6552V6.44634C0 5.58331 0.169243 4.74574 0.503014 3.95657C0.825157 3.1949 1.28621 2.51101 1.8733 1.92392C2.46039 1.33684 3.14427 0.875938 3.90594 0.553638C4.69496 0.220024 5.53269 0.0507812 6.39556 0.0507812H15.6044C16.4675 0.0507812 17.305 0.220024 18.0942 0.553796C18.8559 0.875938 19.5398 1.337 20.1269 1.92408C20.7139 2.51117 21.1748 3.19505 21.4971 3.95672C21.8309 4.7459 22.0002 5.58347 22.0002 6.4465V15.6552C22.0002 16.5183 21.8309 17.3558 21.4971 18.145C21.175 18.9067 20.7139 19.5906 20.1269 20.1776C19.5398 20.7647 18.856 21.2256 18.0942 21.5479C17.305 21.8817 16.4675 22.0509 15.6044 22.0509V22.0508ZM6.39556 2.0454C3.96896 2.0454 1.99461 4.01958 1.99461 6.44634V15.6552C1.99461 18.0818 3.9688 20.0562 6.39556 20.0562H15.6044C18.031 20.0562 20.0054 18.082 20.0054 15.6552V6.44634C20.0054 4.01974 18.0312 2.0454 15.6044 2.0454H6.39556Z" fill="white"/>
<path d="M16.8739 6.50293C17.0559 6.50985 17.2257 6.47182 17.3834 6.38901C17.5473 6.33573 17.6892 6.24459 17.8089 6.11558C17.9379 5.99583 18.0289 5.85393 18.0823 5.69003C18.1651 5.53242 18.203 5.36271 18.1963 5.18058C18.1805 5.06335 18.1648 4.94628 18.149 4.82905C18.0861 4.60512 17.9728 4.41058 17.8089 4.24558C17.7197 4.17659 17.6305 4.10776 17.5413 4.03878C17.3351 3.91919 17.1126 3.85901 16.8739 3.85822C16.6919 3.85131 16.5221 3.88933 16.3644 3.97215C16.2005 4.02542 16.0586 4.11656 15.9389 4.24558C15.8099 4.36532 15.7189 4.50722 15.6655 4.67112C15.5827 4.82873 15.5448 4.99845 15.5515 5.18058C15.5673 5.29781 15.583 5.41488 15.5988 5.53211C15.6617 5.75603 15.775 5.95058 15.9389 6.11558C16.0282 6.18456 16.1173 6.25339 16.2065 6.32238C16.4127 6.44196 16.6352 6.50215 16.8739 6.50293Z" fill="white"/>
</g>
<defs>
<clipPath id="clip0_4233_723">
<rect width="22" height="22" fill="white" transform="translate(0 0.0507812)"/>
</clipPath>
</defs>
</svg>
