<svg width="28" height="32" viewBox="0 0 28 32" fill="none" xmlns="http://www.w3.org/2000/svg">
<path d="M8.51642 0.239111L9.97054 2.83111C7.32207 4.16193 5.52912 6.76711 5.52912 9.75629H22.4703C22.4703 6.76805 20.6755 4.16193 18.0279 2.83111L19.483 0.239111L19.4943 0.210875C19.5065 0.165699 19.515 0.0791107 19.4218 0.0245224C19.3277 -0.0300658 19.2571 0.0207577 19.2242 0.0546401L19.2035 0.0791107L17.7258 2.6937C16.5557 2.16217 15.2849 1.88838 13.9997 1.89088C12.6632 1.89088 11.3983 2.18076 10.2736 2.6937L8.79124 0.0715812L8.75359 0.0339342C8.7299 0.0140599 8.7004 0.00240062 8.66952 0.00070382C8.63863 -0.000992985 8.60803 0.00736403 8.5823 0.0245224C8.48818 0.0791107 8.49477 0.165699 8.50701 0.209934L8.51642 0.239111ZM9.97054 5.25935C10.4148 5.25935 10.7762 5.63017 10.7762 6.08476C10.7772 6.19123 10.7571 6.29685 10.717 6.39552C10.677 6.49419 10.6178 6.58396 10.5429 6.65964C10.4681 6.73533 10.3789 6.79543 10.2807 6.83649C10.1824 6.87755 10.077 6.89876 9.97054 6.89888C9.86409 6.89863 9.75875 6.87734 9.66056 6.83624C9.56237 6.79514 9.47328 6.73502 9.3984 6.65936C9.32353 6.5837 9.26436 6.49399 9.22428 6.39537C9.18421 6.29676 9.16402 6.1912 9.16489 6.08476C9.16489 5.63017 9.52724 5.25935 9.97054 5.25935ZM18.0289 5.25935C18.4731 5.25935 18.8345 5.63017 18.8345 6.08476C18.8382 6.19294 18.8201 6.30075 18.7813 6.40178C18.7424 6.50281 18.6836 6.59499 18.6084 6.67283C18.5332 6.75066 18.4431 6.81256 18.3434 6.85483C18.2438 6.89711 18.1367 6.91889 18.0284 6.91889C17.9202 6.91889 17.813 6.89711 17.7134 6.85483C17.6138 6.81256 17.5236 6.75066 17.4484 6.67283C17.3732 6.59499 17.3144 6.50281 17.2756 6.40178C17.2367 6.30075 17.2186 6.19294 17.2223 6.08476C17.2223 5.63017 17.5847 5.25935 18.0289 5.25935ZM5.46042 10.7671V23.937C5.46042 24.5911 6.23124 25.4466 6.86842 25.4466H8.88536V29.9361C8.88536 31.0796 9.6976 32.0001 10.7084 32.0001C11.7211 32.0001 12.5334 31.0796 12.5334 29.9361V25.4466H15.4651V29.9361C15.4651 31.0796 16.2783 32.0001 17.2901 32.0001C18.3009 32.0001 19.1254 31.0796 19.1254 29.9361V25.4466H21.1301C21.7672 25.4466 22.5381 24.5902 22.5381 23.937V10.7671H5.46042ZM2.65007 10.4913C3.65712 10.4913 4.47595 11.4156 4.47595 12.5553V20.369C4.47595 21.5088 3.65712 22.4339 2.65007 22.4339C1.64018 22.4339 0.823242 21.5088 0.823242 20.369V12.5553C0.823242 11.4165 1.64018 10.4913 2.64912 10.4913H2.65007ZM25.3494 10.4913C26.3583 10.4913 27.1762 11.4156 27.1762 12.5553V20.369C27.1762 21.5088 26.3574 22.4339 25.3503 22.4339C24.3414 22.4339 23.5244 21.5097 23.5244 20.369V12.5553C23.5244 11.4165 24.3414 10.4913 25.3503 10.4913H25.3494Z" fill="url(#paint0_linear_3767_2058)"/>
<defs>
<linearGradient id="paint0_linear_3767_2058" x1="8.5" y1="14" x2="54" y2="-12.5" gradientUnits="userSpaceOnUse">
<stop stop-color="#E0E2FA"/>
<stop offset="1" stop-color="#7881C9" stop-opacity="0"/>
</linearGradient>
</defs>
</svg>
