<svg width="1020" height="137" viewBox="0 0 1020 137" fill="none" xmlns="http://www.w3.org/2000/svg">
<path fill-rule="evenodd" clip-rule="evenodd" d="M65.6764 14.0296C60.9172 8.53441 54.491 4.29276 47.7837 2.21909C33.3454 -2.24354 16.0994 2.18169 7.07829 12.6639C3.6802 16.6124 3.8468 17.7308 7.66955 16.6396C9.15969 16.2146 10.5054 15.9928 10.6601 16.1467C10.8147 16.3005 9.73047 17.9195 8.25059 19.7441C3.15729 26.0263 1.20147 31.5377 0.816115 40.6966C0.425638 49.9704 1.1878 51.0777 4.32614 45.7958L6.21958 42.6088L6.69123 48.631C7.26114 55.9032 10.1372 62.2466 15.2723 67.5608C18.7567 71.1668 27.7753 76.1767 30.7846 76.1776C32.0988 76.1784 32.2799 77.1116 32.2799 83.8629C32.2799 114.332 47.183 130.352 80.125 135.291C89.7476 136.734 115.568 136.918 125.014 135.611C152.701 131.781 167.564 121.106 172.859 101.249C173.606 98.4449 174.445 91.6561 174.721 86.1643C175.043 79.7555 175.56 76.1784 176.165 76.1776C178.999 76.1759 187.798 70.86 191.479 66.926C196.725 61.3211 199.081 56.0503 199.692 48.5579L200.177 42.6088L202.169 45.7958C203.265 47.5482 204.514 48.9828 204.946 48.9828C206.224 48.9828 205.839 36.0581 204.419 31.2997C203.697 28.8835 201.393 24.4158 199.298 21.3724C197.202 18.3282 195.585 15.8381 195.702 15.8381C195.82 15.8381 197.158 16.1925 198.676 16.6251C202.55 17.7308 202.728 16.6268 199.318 12.6639C192.784 5.07208 182.087 0.540605 170.699 0.540605C158.942 0.540605 148.951 4.91655 141.245 13.4407L137.43 17.6611L130.274 15.8781C112.714 11.503 86.9434 12.0231 72.6409 17.0416L69.3001 18.2144L65.6764 14.0296ZM170.086 47.1234C165.346 35.5422 156.903 27.1032 148.024 23.8567C152.479 18.7116 159.102 15.4502 166.496 15.4502C179.912 15.4502 190.789 26.1873 190.789 39.4321C190.789 50.2342 183.554 59.3682 173.608 62.37C173.329 57.4343 172.181 52.244 170.086 47.1234ZM58.4172 23.8576C49.5375 27.1039 41.0941 35.5431 36.3549 47.1245C34.2597 52.2448 33.1113 57.4348 32.8325 62.3703C22.8861 59.3685 15.6519 50.2345 15.6519 39.4324C15.6519 26.1875 26.5279 15.4504 39.9443 15.4504C47.3388 15.4504 53.9617 18.7121 58.4172 23.8576ZM99.2261 61.4561C91.4941 61.4561 85.2261 67.7241 85.2261 75.4561V95.9158C85.2261 103.648 91.4941 109.916 99.2261 109.916H105.654C113.386 109.916 119.654 103.648 119.654 95.9158V75.4561C119.654 67.7241 113.386 61.4561 105.654 61.4561H99.2261ZM63.3159 72.3989C63.3159 68.0821 66.8237 64.5828 71.1404 64.5828C75.4571 64.5828 78.9648 68.0821 78.9648 72.3989C78.9648 76.7156 75.4571 80.215 71.1404 80.215C66.8237 80.215 63.3159 76.7156 63.3159 72.3989ZM133.736 64.5828C129.419 64.5828 125.912 68.0821 125.912 72.3989C125.912 76.7156 129.419 80.215 133.736 80.215C138.053 80.215 141.561 76.7156 141.561 72.3989C141.561 68.0821 138.053 64.5828 133.736 64.5828Z" fill="white"/>
<path d="M282.874 112.643C279.717 112.643 277.285 111.79 275.578 110.083C273.957 108.376 273.146 105.944 273.146 102.787V29.9549C273.146 26.7122 273.957 24.2802 275.578 22.6589C277.285 20.9522 279.717 20.0989 282.874 20.0989C285.946 20.0989 288.293 20.9522 289.914 22.6589C291.621 24.2802 292.474 26.7122 292.474 29.9549V74.6269H292.73L311.29 54.0189C313.168 51.8855 314.874 50.3069 316.41 49.2829C318.032 48.1735 320.165 47.6189 322.81 47.6189C325.456 47.6189 327.461 48.3015 328.826 49.6669C330.277 51.0322 331.002 52.6962 331.002 54.6589C331.088 56.5362 330.277 58.4562 328.57 60.4189L308.986 82.3069V75.0109L330.746 100.099C332.368 102.062 333.05 104.024 332.794 105.987C332.624 107.95 331.77 109.571 330.234 110.851C328.698 112.046 326.736 112.643 324.346 112.643C321.445 112.643 319.098 112.088 317.306 110.979C315.6 109.87 313.85 108.163 312.058 105.859L292.73 84.3549H292.474V102.787C292.474 109.358 289.274 112.643 282.874 112.643Z" fill="white"/>
<path d="M373.729 112.899C366.988 112.899 361.1 111.576 356.065 108.931C351.116 106.286 347.276 102.488 344.545 97.5389C341.815 92.5895 340.449 86.7442 340.449 80.0029C340.449 74.9682 341.217 70.4455 342.753 66.4349C344.289 62.4242 346.508 59.0109 349.409 56.1949C352.396 53.2935 355.937 51.1175 360.033 49.6669C364.129 48.1309 368.695 47.3629 373.729 47.3629C380.471 47.3629 386.316 48.6855 391.265 51.3309C396.3 53.9762 400.183 57.7309 402.913 62.5949C405.729 67.4589 407.137 73.2615 407.137 80.0029C407.137 85.1229 406.327 89.6882 404.705 93.6989C403.169 97.7096 400.951 101.166 398.049 104.067C395.148 106.968 391.607 109.187 387.425 110.723C383.329 112.174 378.764 112.899 373.729 112.899ZM373.729 98.4349C376.545 98.4349 378.977 97.7522 381.025 96.3869C383.073 95.0215 384.695 93.0162 385.889 90.3709C387.084 87.6402 387.681 84.1842 387.681 80.0029C387.681 73.7736 386.401 69.2082 383.841 66.3069C381.281 63.3202 377.911 61.8269 373.729 61.8269C370.999 61.8269 368.567 62.4669 366.433 63.7469C364.385 65.0269 362.764 67.0322 361.569 69.7629C360.46 72.4082 359.905 75.8215 359.905 80.0029C359.905 86.2322 361.185 90.8829 363.745 93.9549C366.305 96.9415 369.633 98.4349 373.729 98.4349Z" fill="white"/>
<path d="M440.144 112.899C435.536 112.899 431.398 112.003 427.728 110.211C424.059 108.419 421.2 105.987 419.152 102.915C417.104 99.8429 416.08 96.3869 416.08 92.5469C416.08 87.9389 417.275 84.3122 419.664 81.6669C422.054 78.9362 425.936 77.0162 431.312 75.9069C436.688 74.7122 443.814 74.1149 452.688 74.1149H459.472V84.0989H452.816C448.464 84.0989 444.923 84.3549 442.192 84.8669C439.547 85.2935 437.627 86.0616 436.432 87.1709C435.323 88.2802 434.768 89.8162 434.768 91.7789C434.768 94.1682 435.579 96.1309 437.2 97.6669C438.907 99.2029 441.339 99.9709 444.496 99.9709C446.971 99.9709 449.147 99.4162 451.024 98.3069C452.987 97.1122 454.523 95.5336 455.632 93.5709C456.742 91.5229 457.296 89.2189 457.296 86.6589V71.9389C457.296 68.1842 456.443 65.5389 454.736 64.0029C453.03 62.3815 450.128 61.5709 446.032 61.5709C443.728 61.5709 441.211 61.8695 438.48 62.4669C435.835 62.9789 432.891 63.8749 429.648 65.1549C427.771 66.0082 426.107 66.2215 424.656 65.7949C423.206 65.2829 422.096 64.4295 421.328 63.2349C420.56 61.9549 420.176 60.5895 420.176 59.1389C420.176 57.6029 420.603 56.1522 421.456 54.7869C422.31 53.3362 423.718 52.2695 425.68 51.5869C429.691 49.9655 433.446 48.8562 436.944 48.2589C440.528 47.6615 443.814 47.3629 446.8 47.3629C453.371 47.3629 458.747 48.3442 462.928 50.3069C467.195 52.1842 470.395 55.1282 472.528 59.1389C474.662 63.0642 475.728 68.1415 475.728 74.3709V102.787C475.728 105.944 474.96 108.376 473.424 110.083C471.888 111.79 469.67 112.643 466.768 112.643C463.867 112.643 461.606 111.79 459.984 110.083C458.448 108.376 457.68 105.944 457.68 102.787V98.0509L458.576 98.8189C458.064 101.72 456.955 104.238 455.248 106.371C453.627 108.419 451.536 110.04 448.976 111.235C446.416 112.344 443.472 112.899 440.144 112.899Z" fill="white"/>
<path d="M512.802 112.899C505.208 112.899 499.533 110.808 495.778 106.627C492.024 102.36 490.146 96.0456 490.146 87.6829V29.9549C490.146 26.7122 490.957 24.2802 492.578 22.6589C494.285 20.9522 496.717 20.0989 499.874 20.0989C502.946 20.0989 505.293 20.9522 506.914 22.6589C508.621 24.2802 509.474 26.7122 509.474 29.9549V86.9149C509.474 90.4136 510.2 93.0162 511.65 94.7229C513.186 96.3442 515.192 97.1549 517.666 97.1549C518.349 97.1549 518.989 97.1122 519.586 97.0269C520.184 96.9416 520.824 96.8989 521.506 96.8989C522.872 96.7282 523.81 97.1549 524.322 98.1789C524.92 99.1175 525.218 101.038 525.218 103.939C525.218 106.499 524.706 108.462 523.682 109.827C522.658 111.107 521.08 111.96 518.946 112.387C518.093 112.472 517.112 112.558 516.002 112.643C514.893 112.814 513.826 112.899 512.802 112.899Z" fill="white"/>
<path d="M554.019 112.899C549.411 112.899 545.273 112.003 541.603 110.211C537.934 108.419 535.075 105.987 533.027 102.915C530.979 99.8429 529.955 96.3869 529.955 92.5469C529.955 87.9389 531.15 84.3122 533.539 81.6669C535.929 78.9362 539.811 77.0162 545.187 75.9069C550.563 74.7122 557.689 74.1149 566.563 74.1149H573.347V84.0989H566.691C562.339 84.0989 558.798 84.3549 556.067 84.8669C553.422 85.2935 551.502 86.0616 550.307 87.1709C549.198 88.2802 548.643 89.8162 548.643 91.7789C548.643 94.1682 549.454 96.1309 551.075 97.6669C552.782 99.2029 555.214 99.9709 558.371 99.9709C560.846 99.9709 563.022 99.4162 564.899 98.3069C566.862 97.1122 568.398 95.5336 569.507 93.5709C570.617 91.5229 571.171 89.2189 571.171 86.6589V71.9389C571.171 68.1842 570.318 65.5389 568.611 64.0029C566.905 62.3815 564.003 61.5709 559.907 61.5709C557.603 61.5709 555.086 61.8695 552.355 62.4669C549.71 62.9789 546.766 63.8749 543.523 65.1549C541.646 66.0082 539.982 66.2215 538.531 65.7949C537.081 65.2829 535.971 64.4295 535.203 63.2349C534.435 61.9549 534.051 60.5895 534.051 59.1389C534.051 57.6029 534.478 56.1522 535.331 54.7869C536.185 53.3362 537.593 52.2695 539.555 51.5869C543.566 49.9655 547.321 48.8562 550.819 48.2589C554.403 47.6615 557.689 47.3629 560.675 47.3629C567.246 47.3629 572.622 48.3442 576.803 50.3069C581.07 52.1842 584.27 55.1282 586.403 59.1389C588.537 63.0642 589.603 68.1415 589.603 74.3709V102.787C589.603 105.944 588.835 108.376 587.299 110.083C585.763 111.79 583.545 112.643 580.643 112.643C577.742 112.643 575.481 111.79 573.859 110.083C572.323 108.376 571.555 105.944 571.555 102.787V98.0509L572.451 98.8189C571.939 101.72 570.83 104.238 569.123 106.371C567.502 108.419 565.411 110.04 562.851 111.235C560.291 112.344 557.347 112.899 554.019 112.899Z" fill="white"/>
<path d="M665.627 112.643C663.067 112.643 660.891 112.046 659.099 110.851C657.307 109.571 655.857 107.566 654.747 104.835L636.699 60.1629C635.761 57.7735 635.462 55.6829 635.803 53.8909C636.145 52.0135 637.041 50.5202 638.491 49.4109C640.027 48.2162 642.118 47.6189 644.763 47.6189C646.982 47.6189 648.817 48.1735 650.267 49.2829C651.718 50.3069 652.955 52.3122 653.979 55.2989L668.059 92.8029H665.115L679.707 53.6349C680.39 51.5869 681.371 50.0935 682.651 49.1549C684.017 48.1309 685.766 47.6189 687.899 47.6189C690.033 47.6189 691.739 48.1309 693.019 49.1549C694.385 50.1789 695.451 51.6722 696.219 53.6349L710.555 92.8029H708.123L722.075 54.7869C723.099 52.0562 724.422 50.1789 726.043 49.1549C727.665 48.1309 729.414 47.6189 731.291 47.6189C733.681 47.6189 735.515 48.2162 736.795 49.4109C738.161 50.6055 738.929 52.1415 739.099 54.0189C739.355 55.8962 739.014 57.9442 738.075 60.1629L720.155 104.835C719.131 107.48 717.681 109.443 715.803 110.723C714.011 112.003 711.835 112.643 709.275 112.643C706.801 112.643 704.625 112.003 702.747 110.723C700.955 109.443 699.505 107.48 698.395 104.835L683.035 64.8989H691.355L676.379 104.707C675.355 107.352 673.947 109.358 672.155 110.723C670.363 112.003 668.187 112.643 665.627 112.643Z" fill="white"/>
<path d="M770.019 112.899C765.411 112.899 761.273 112.003 757.603 110.211C753.934 108.419 751.075 105.987 749.027 102.915C746.979 99.8429 745.955 96.3869 745.955 92.5469C745.955 87.9389 747.15 84.3122 749.539 81.6669C751.929 78.9362 755.811 77.0162 761.187 75.9069C766.563 74.7122 773.689 74.1149 782.563 74.1149H789.347V84.0989H782.691C778.339 84.0989 774.798 84.3549 772.067 84.8669C769.422 85.2935 767.502 86.0616 766.307 87.1709C765.198 88.2802 764.643 89.8162 764.643 91.7789C764.643 94.1682 765.454 96.1309 767.075 97.6669C768.782 99.2029 771.214 99.9709 774.371 99.9709C776.846 99.9709 779.022 99.4162 780.899 98.3069C782.862 97.1122 784.398 95.5336 785.507 93.5709C786.617 91.5229 787.171 89.2189 787.171 86.6589V71.9389C787.171 68.1842 786.318 65.5389 784.611 64.0029C782.905 62.3815 780.003 61.5709 775.907 61.5709C773.603 61.5709 771.086 61.8695 768.355 62.4669C765.71 62.9789 762.766 63.8749 759.523 65.1549C757.646 66.0082 755.982 66.2215 754.531 65.7949C753.081 65.2829 751.971 64.4295 751.203 63.2349C750.435 61.9549 750.051 60.5895 750.051 59.1389C750.051 57.6029 750.478 56.1522 751.331 54.7869C752.185 53.3362 753.593 52.2695 755.555 51.5869C759.566 49.9655 763.321 48.8562 766.819 48.2589C770.403 47.6615 773.689 47.3629 776.675 47.3629C783.246 47.3629 788.622 48.3442 792.803 50.3069C797.07 52.1842 800.27 55.1282 802.403 59.1389C804.537 63.0642 805.603 68.1415 805.603 74.3709V102.787C805.603 105.944 804.835 108.376 803.299 110.083C801.763 111.79 799.545 112.643 796.643 112.643C793.742 112.643 791.481 111.79 789.859 110.083C788.323 108.376 787.555 105.944 787.555 102.787V98.0509L788.451 98.8189C787.939 101.72 786.83 104.238 785.123 106.371C783.502 108.419 781.411 110.04 778.851 111.235C776.291 112.344 773.347 112.899 770.019 112.899Z" fill="white"/>
<path d="M842.677 112.899C835.083 112.899 829.408 110.808 825.653 106.627C821.899 102.36 820.021 96.0456 820.021 87.6829V29.9549C820.021 26.7122 820.832 24.2802 822.453 22.6589C824.16 20.9522 826.592 20.0989 829.749 20.0989C832.821 20.0989 835.168 20.9522 836.789 22.6589C838.496 24.2802 839.349 26.7122 839.349 29.9549V86.9149C839.349 90.4136 840.075 93.0162 841.525 94.7229C843.061 96.3442 845.067 97.1549 847.541 97.1549C848.224 97.1549 848.864 97.1122 849.461 97.0269C850.059 96.9416 850.699 96.8989 851.381 96.8989C852.747 96.7282 853.685 97.1549 854.197 98.1789C854.795 99.1175 855.093 101.038 855.093 103.939C855.093 106.499 854.581 108.462 853.557 109.827C852.533 111.107 850.955 111.96 848.821 112.387C847.968 112.472 846.987 112.558 845.877 112.643C844.768 112.814 843.701 112.899 842.677 112.899Z" fill="white"/>
<path d="M885.302 112.899C877.708 112.899 872.033 110.808 868.278 106.627C864.524 102.36 862.646 96.0456 862.646 87.6829V29.9549C862.646 26.7122 863.457 24.2802 865.078 22.6589C866.785 20.9522 869.217 20.0989 872.374 20.0989C875.446 20.0989 877.793 20.9522 879.414 22.6589C881.121 24.2802 881.974 26.7122 881.974 29.9549V86.9149C881.974 90.4136 882.7 93.0162 884.15 94.7229C885.686 96.3442 887.692 97.1549 890.166 97.1549C890.849 97.1549 891.489 97.1122 892.086 97.0269C892.684 96.9416 893.324 96.8989 894.006 96.8989C895.372 96.7282 896.31 97.1549 896.822 98.1789C897.42 99.1175 897.718 101.038 897.718 103.939C897.718 106.499 897.206 108.462 896.182 109.827C895.158 111.107 893.58 111.96 891.446 112.387C890.593 112.472 889.612 112.558 888.502 112.643C887.393 112.814 886.326 112.899 885.302 112.899Z" fill="white"/>
<path d="M937.286 112.899C929.862 112.899 923.462 111.576 918.086 108.931C912.796 106.2 908.7 102.403 905.798 97.5389C902.982 92.5895 901.574 86.7869 901.574 80.1309C901.574 73.6455 902.94 67.9709 905.67 63.1069C908.401 58.1575 912.198 54.3175 917.062 51.5869C922.012 48.7709 927.601 47.3629 933.83 47.3629C938.353 47.3629 942.449 48.1309 946.118 49.6669C949.788 51.1175 952.945 53.2509 955.59 56.0669C958.236 58.7975 960.241 62.1682 961.606 66.1789C962.972 70.1042 963.654 74.4989 963.654 79.3629C963.654 80.9842 963.142 82.2215 962.118 83.0749C961.094 83.8429 959.601 84.2269 957.638 84.2269H917.446V74.2429H949.702L947.654 76.0349C947.654 72.5362 947.142 69.6349 946.118 67.3309C945.094 64.9415 943.601 63.1495 941.638 61.9549C939.761 60.7602 937.414 60.1629 934.598 60.1629C931.441 60.1629 928.753 60.8882 926.534 62.3389C924.316 63.7895 922.609 65.8802 921.414 68.6109C920.22 71.3415 919.622 74.6269 919.622 78.4669V79.4909C919.622 85.9762 921.116 90.7549 924.102 93.8269C927.174 96.8989 931.697 98.4349 937.67 98.4349C939.718 98.4349 942.065 98.1789 944.71 97.6669C947.356 97.1549 949.83 96.3442 952.134 95.2349C954.097 94.2962 955.846 93.9975 957.382 94.3389C958.918 94.5949 960.113 95.2775 960.966 96.3869C961.82 97.4962 962.289 98.7762 962.374 100.227C962.545 101.678 962.246 103.128 961.478 104.579C960.71 105.944 959.43 107.096 957.638 108.035C954.737 109.656 951.452 110.851 947.782 111.619C944.198 112.472 940.7 112.899 937.286 112.899Z" fill="white"/>
<path d="M1005.37 112.899C999.481 112.899 994.532 111.918 990.521 109.955C986.596 107.992 983.652 105.134 981.689 101.379C979.812 97.6242 978.873 92.8882 978.873 87.1709V63.1069H973.497C971.108 63.1069 969.231 62.4669 967.865 61.1869C966.585 59.9069 965.945 58.1575 965.945 55.9389C965.945 53.5495 966.585 51.7575 967.865 50.5629C969.231 49.2829 971.108 48.6429 973.497 48.6429H978.873V38.9149C978.873 35.6722 979.727 33.2402 981.433 31.6189C983.14 29.9122 985.529 29.0589 988.601 29.0589C991.759 29.0589 994.148 29.9122 995.769 31.6189C997.391 33.2402 998.201 35.6722 998.201 38.9149V48.6429H1010.36C1012.75 48.6429 1014.59 49.2829 1015.87 50.5629C1017.15 51.7575 1017.79 53.5495 1017.79 55.9389C1017.79 58.1575 1017.15 59.9069 1015.87 61.1869C1014.59 62.4669 1012.75 63.1069 1010.36 63.1069H998.201V86.4029C998.201 89.9869 999.012 92.6749 1000.63 94.4669C1002.34 96.2589 1005.03 97.1549 1008.7 97.1549C1009.98 97.1549 1011.17 97.0269 1012.28 96.7709C1013.39 96.5149 1014.41 96.3442 1015.35 96.2589C1016.55 96.1735 1017.53 96.5575 1018.3 97.4109C1019.07 98.1789 1019.45 99.9282 1019.45 102.659C1019.45 104.707 1019.11 106.499 1018.43 108.035C1017.74 109.571 1016.55 110.68 1014.84 111.363C1013.73 111.79 1012.2 112.131 1010.23 112.387C1008.36 112.728 1006.73 112.899 1005.37 112.899Z" fill="white"/>
</svg>
