<svg width="255" height="153" viewBox="0 0 255 153" fill="none" xmlns="http://www.w3.org/2000/svg">
<ellipse cx="127.317" cy="136.328" rx="127.317" ry="16.6725" fill="black"/>
<mask id="mask0_1225_1283" style="mask-type:alpha" maskUnits="userSpaceOnUse" x="0" y="89" width="255" height="64">
<ellipse cx="127.317" cy="121.171" rx="127.317" ry="31.8293" fill="#171826"/>
</mask>
<g mask="url(#mask0_1225_1283)">
<g filter="url(#filter0_d_1225_1283)">
<path fill-rule="evenodd" clip-rule="evenodd" d="M81.9047 105.731C86.6654 107.21 91.2266 110.235 94.6046 114.155L97.1766 117.14L99.5479 116.303C109.699 112.724 127.991 112.353 140.455 115.473L145.534 116.745L148.242 113.735C153.711 107.655 160.802 104.534 169.147 104.534C177.231 104.534 184.823 107.766 189.461 113.181C191.881 116.007 191.754 116.795 189.005 116.006C187.927 115.698 186.978 115.445 186.894 115.445C186.811 115.445 187.959 117.221 189.446 119.392C190.933 121.563 192.569 124.75 193.081 126.473C194.089 129.867 194.363 139.086 193.455 139.086C193.148 139.086 192.262 138.062 191.484 136.813L190.07 134.539L189.726 138.783C189.293 144.127 187.62 147.886 183.897 151.884C181.284 154.69 175.038 158.481 173.027 158.483C172.597 158.483 172.23 161.035 172.002 165.606C171.806 169.523 171.211 174.365 170.68 176.365C166.922 190.529 156.373 198.142 136.721 200.874C130.016 201.807 111.69 201.675 104.86 200.646C81.4784 197.123 70.9005 185.697 70.9005 163.964C70.9005 159.149 70.7719 158.483 69.8392 158.483C67.7032 158.482 61.302 154.909 58.8289 152.337C55.184 148.546 53.1427 144.022 52.7382 138.835L52.4034 134.539L51.0595 136.813C48.832 140.58 48.291 139.79 48.5681 133.175C48.8417 126.643 50.2299 122.712 53.845 118.231C54.8954 116.929 55.665 115.775 55.5552 115.665C55.4454 115.555 54.4902 115.713 53.4326 116.016C50.7193 116.795 50.601 115.997 53.0129 113.181C59.4159 105.704 71.6567 102.548 81.9047 105.731Z" fill="white"/>
<path fill-rule="evenodd" clip-rule="evenodd" d="M153.051 121.164C159.354 123.479 165.346 129.498 168.71 137.759C170.197 141.412 171.013 145.114 171.21 148.635C178.269 146.494 183.403 139.979 183.403 132.275C183.403 122.828 175.684 115.169 166.161 115.169C160.914 115.169 156.214 117.495 153.051 121.164Z" fill="#171826"/>
<path fill-rule="evenodd" clip-rule="evenodd" d="M89.4595 121.166C83.1584 123.483 77.1675 129.501 73.8045 137.76C72.3169 141.413 71.5018 145.116 71.3042 148.637C64.2422 146.497 59.1055 139.981 59.1055 132.275C59.1055 122.828 66.8251 115.169 76.3477 115.169C81.5962 115.169 86.297 117.496 89.4595 121.166Z" fill="#171826"/>
<rect x="108.483" y="147.983" width="24.436" height="34.5644" rx="12.218" fill="#171826"/>
<rect x="92.936" y="150.214" width="11.1073" height="11.1498" rx="5.55364" fill="#171826"/>
<rect x="137.364" y="150.214" width="11.1073" height="11.1498" rx="5.55364" fill="#171826"/>
</g>
</g>
<path d="M82.661 72.871L82.1041 72.3516C80.5646 70.916 79.4558 69.645 78.7776 68.5386C78.1079 67.4231 77.7291 66.3587 77.6411 65.3455C77.5441 64.3239 77.5983 63.2401 77.8035 62.094C77.9733 61.1857 78.0795 60.3366 78.122 59.5466C78.1639 58.7392 78.0899 58.0015 77.9001 57.3335C77.7103 56.6655 77.3393 56.074 76.7869 55.5589C76.2526 55.0607 75.6635 54.7483 75.0195 54.6219C74.3755 54.4954 73.738 54.5527 73.1069 54.7938C72.4752 55.0174 71.9102 55.3963 71.412 55.9306C70.9137 56.4649 70.5673 57.0814 70.3727 57.7803C70.1865 58.4702 70.1805 59.1756 70.3546 59.8967C70.5281 60.6003 70.9276 61.2521 71.553 61.8523L65.7263 68.1007C63.8499 66.3002 62.7019 64.4085 62.2823 62.4257C61.871 60.4339 62.0343 58.4614 62.7721 56.5082C63.5008 54.5467 64.659 52.7146 66.2466 51.0122C67.9861 49.1467 69.8213 47.7597 71.752 46.8513C73.6911 45.9338 75.6151 45.5862 77.524 45.8087C79.4328 46.0311 81.2068 46.9066 82.8459 48.4351C83.9235 49.44 84.7054 50.5077 85.1917 51.6384C85.678 52.7691 85.9341 53.956 85.96 55.1991C85.9853 56.4248 85.8506 57.7129 85.5561 59.0636C85.3213 60.1143 85.21 61.0688 85.2225 61.9269C85.2434 62.776 85.429 63.5755 85.7793 64.3254C86.1206 65.0669 86.6942 65.8135 87.5002 66.565L88.0571 67.0844L82.661 72.871ZM94.3712 78.1784C93.4592 79.1565 92.3339 79.6732 90.9955 79.7287C89.6655 79.7752 88.5157 79.3378 87.5461 78.4168C86.5777 77.5307 86.0749 76.4269 86.0375 75.1053C85.9995 73.7662 86.4365 72.6077 87.3485 71.6297C88.2183 70.697 89.3266 70.1983 90.6735 70.1338C92.0114 70.0608 93.1645 70.4673 94.1328 71.3534C94.7764 71.9704 95.2091 72.6956 95.4309 73.5289C95.6612 74.3531 95.6857 75.1802 95.5044 76.01C95.3316 76.8308 94.9539 77.5536 94.3712 78.1784Z" fill="white"/>
<path d="M197.784 48.157L198.207 47.8147C199.375 46.8685 200.384 46.2106 201.234 45.8409C202.09 45.478 202.881 45.3159 203.606 45.3544C204.338 45.3873 205.099 45.5334 205.89 45.7925C206.515 46.0029 207.105 46.1624 207.66 46.271C208.227 46.3809 208.756 46.4019 209.247 46.334C209.739 46.2662 210.194 46.0625 210.613 45.723C211.019 45.3946 211.298 45.009 211.452 44.566C211.605 44.1231 211.628 43.6665 211.52 43.1961C211.425 42.727 211.213 42.2897 210.885 41.8842C210.556 41.4787 210.155 41.1723 209.68 40.9652C209.21 40.765 208.712 40.6906 208.184 40.742C207.67 40.7948 207.169 41.0126 206.682 41.3953L202.842 36.6527C204.302 35.5045 205.754 34.8805 207.198 34.7808C208.648 34.6879 210.027 34.9995 211.335 35.7155C212.65 36.426 213.831 37.4273 214.877 38.7195C216.024 40.1354 216.822 41.5713 217.273 43.0273C217.729 44.4901 217.784 45.8856 217.437 47.2136C217.09 48.5417 216.294 49.7095 215.05 50.7169C214.232 51.3793 213.399 51.8262 212.551 52.0578C211.703 52.2893 210.838 52.3525 209.956 52.2472C209.086 52.1433 208.189 51.92 207.263 51.5774C206.543 51.3068 205.879 51.1333 205.27 51.0568C204.668 50.9871 204.084 51.0389 203.518 51.2122C202.96 51.3799 202.375 51.7114 201.763 52.2068L201.341 52.5491L197.784 48.157ZM192.866 55.9124C192.265 55.1701 192.011 54.3228 192.105 53.3705C192.204 52.4252 192.628 51.6553 193.376 51.0611C194.099 50.4642 194.929 50.2183 195.868 50.3232C196.819 50.4294 197.595 50.8537 198.196 51.596C198.769 52.304 199.012 53.1375 198.924 54.0967C198.842 55.0502 198.44 55.8254 197.717 56.4223C197.217 56.8162 196.661 57.0501 196.049 57.1242C195.443 57.2052 194.856 57.1403 194.287 56.9296C193.723 56.7257 193.25 56.3867 192.866 55.9124Z" fill="white"/>
<path d="M125.89 27.4863L125.815 27.0578C125.606 25.8732 125.537 24.9119 125.608 24.1737C125.686 23.4343 125.879 22.8183 126.187 22.3257C126.494 21.8261 126.892 21.3501 127.38 20.8976C127.77 20.5415 128.11 20.1905 128.401 19.8446C128.698 19.4905 128.918 19.1284 129.061 18.7584C129.204 18.3883 129.238 17.9907 129.163 17.5656C129.091 17.1545 128.929 16.8094 128.679 16.5302C128.428 16.2511 128.118 16.058 127.747 15.951C127.382 15.8357 126.993 15.8144 126.582 15.8869C126.171 15.9594 125.801 16.1216 125.472 16.3736C125.15 16.6244 124.904 16.9443 124.736 17.3332C124.573 17.714 124.531 18.1489 124.61 18.6378L119.802 19.4856C119.565 18.0187 119.692 16.7606 120.182 15.7114C120.68 14.6609 121.432 13.8169 122.441 13.1793C123.448 12.5347 124.606 12.0969 125.916 11.8659C127.352 11.6128 128.666 11.611 129.86 11.8603C131.06 12.1085 132.058 12.6115 132.852 13.3695C133.647 14.1275 134.156 15.137 134.378 16.3982C134.524 17.2274 134.514 17.9836 134.347 18.6669C134.18 19.3501 133.889 19.9798 133.473 20.556C133.063 21.1241 132.559 21.6656 131.96 22.1808C131.491 22.5795 131.112 22.9768 130.823 23.3727C130.54 23.7674 130.35 24.1961 130.252 24.6588C130.153 25.1146 130.158 25.6525 130.267 26.2727L130.343 26.7012L125.89 27.4863ZM129.409 33.9355C128.657 34.0682 127.965 33.9171 127.335 33.4821C126.713 33.0459 126.338 32.4509 126.212 31.6972C126.075 30.9598 126.225 30.2831 126.663 29.6671C127.106 29.043 127.704 28.6645 128.456 28.5319C129.174 28.4053 129.851 28.5589 130.488 28.9926C131.124 29.4194 131.51 30.0015 131.648 30.7388C131.729 31.2418 131.677 31.7215 131.492 32.1781C131.313 32.6334 131.04 33.0193 130.672 33.3356C130.311 33.6508 129.89 33.8507 129.409 33.9355Z" fill="white" fill-opacity="0.25"/>
<defs>
<filter id="filter0_d_1225_1283" x="-407.028" y="-123.267" width="1056.56" height="1008.06" filterUnits="userSpaceOnUse" color-interpolation-filters="sRGB">
<feFlood flood-opacity="0" result="BackgroundImageFix"/>
<feColorMatrix in="SourceAlpha" type="matrix" values="0 0 0 0 0 0 0 0 0 0 0 0 0 0 0 0 0 0 127 0" result="hardAlpha"/>
<feOffset dy="227.765"/>
<feGaussianBlur stdDeviation="227.765"/>
<feComposite in2="hardAlpha" operator="out"/>
<feColorMatrix type="matrix" values="0 0 0 0 0 0 0 0 0 0 0 0 0 0 0 0 0 0 0.3 0"/>
<feBlend mode="normal" in2="BackgroundImageFix" result="effect1_dropShadow_1225_1283"/>
<feBlend mode="normal" in="SourceGraphic" in2="effect1_dropShadow_1225_1283" result="shape"/>
</filter>
</defs>
</svg>
